<svg id="e65b8b1f-0046-443e-97e2-438cdbc13702" data-name="Layer 1" xmlns="http://www.w3.org/2000/svg" viewBox="0 0 196.45 36.33"><title>cash-on-delivery</title><path d="M50.24,19.48a4.78,4.78,0,0,1-.75.42,5.64,5.64,0,0,1-1.12.38,5.58,5.58,0,0,1-1.41.16A6.1,6.1,0,0,1,44.65,20a5.23,5.23,0,0,1-1.77-1.22A5.32,5.32,0,0,1,41.76,17a5.9,5.9,0,0,1-.39-2.15,6.61,6.61,0,0,1,.4-2.3,5.41,5.41,0,0,1,1.15-1.83,5.27,5.27,0,0,1,1.76-1.21,5.51,5.51,0,0,1,2.21-.43,5.73,5.73,0,0,1,1.81.27,7.45,7.45,0,0,1,1.41.62l-.61,1.42a5.31,5.31,0,0,0-1.12-.6,3.61,3.61,0,0,0-1.45-.28,3.86,3.86,0,0,0-1.54.32,4,4,0,0,0-1.27.91,4.39,4.39,0,0,0-.87,1.36,4.19,4.19,0,0,0-.32,1.68,4.84,4.84,0,0,0,.28,1.67A4,4,0,0,0,44,17.78a3.49,3.49,0,0,0,1.29.9A4.14,4.14,0,0,0,47,19a4.19,4.19,0,0,0,1.51-.26,4.8,4.8,0,0,0,1.09-.59Z"/><path d="M51.64,20.32,56.5,8.72h.09l4.86,11.6H59.74l-3.63-9.26,1.06-.69-4.05,10Zm2.85-4.22h4.15l.49,1.29H54.06Z"/><path d="M69.31,11.17a8.36,8.36,0,0,0-1.25-.51,4.44,4.44,0,0,0-1.33-.21,2.22,2.22,0,0,0-1.42.41A1.36,1.36,0,0,0,64.78,12a1.22,1.22,0,0,0,.35.89,3,3,0,0,0,.89.62c.36.17.75.34,1.16.49s.68.27,1,.44a4.17,4.17,0,0,1,.91.62,2.61,2.61,0,0,1,.65.91A3.26,3.26,0,0,1,70,17.27a3.06,3.06,0,0,1-.44,1.61A2.94,2.94,0,0,1,68.31,20a4.26,4.26,0,0,1-2,.42A5.75,5.75,0,0,1,65,20.28a6.47,6.47,0,0,1-1.24-.44,11.65,11.65,0,0,1-1-.57l.66-1.17a7.34,7.34,0,0,0,.85.5,5.73,5.73,0,0,0,1,.38,4.08,4.08,0,0,0,1,.13,3,3,0,0,0,1-.18,2,2,0,0,0,.85-.58,1.6,1.6,0,0,0,.34-1.07,1.49,1.49,0,0,0-.3-.94,2.57,2.57,0,0,0-.79-.65,8.52,8.52,0,0,0-1.05-.49,8.85,8.85,0,0,1-1.07-.43,5.18,5.18,0,0,1-1-.59,2.79,2.79,0,0,1-.74-.86,2.43,2.43,0,0,1-.28-1.23,2.79,2.79,0,0,1,.42-1.53,2.87,2.87,0,0,1,1.17-1,3.94,3.94,0,0,1,1.69-.41,6.42,6.42,0,0,1,1.9.26,8.22,8.22,0,0,1,1.46.63Z"/><path d="M81.32,9.18V20.32h-1.5V15.43H74v4.89H72.51V9.18H74V14h5.82V9.18Z"/><path d="M88.69,14.76a5.6,5.6,0,0,1,.44-2.19,5.9,5.9,0,0,1,3-3.06,5.6,5.6,0,0,1,4.4,0,5.7,5.7,0,0,1,1.83,1.24,5.88,5.88,0,0,1,1.24,1.82,5.6,5.6,0,0,1-1.24,6.21A5.72,5.72,0,0,1,96.58,20a5.66,5.66,0,0,1-6.22-1.2A5.55,5.55,0,0,1,89.13,17,5.7,5.7,0,0,1,88.69,14.76Zm1.54,0a4.29,4.29,0,0,0,.32,1.65,4.23,4.23,0,0,0,.89,1.35,4.35,4.35,0,0,0,1.33.92,4.14,4.14,0,0,0,3.24,0,4.16,4.16,0,0,0,1.31-.91,4.4,4.4,0,0,0,.89-1.35,4.29,4.29,0,0,0,.32-1.65,4.34,4.34,0,0,0-.32-1.66,4.45,4.45,0,0,0-.89-1.36A3.86,3.86,0,0,0,96,10.82a4.06,4.06,0,0,0-1.63-.33,4,4,0,0,0-1.64.34,4.24,4.24,0,0,0-1.32.92,4.37,4.37,0,0,0-1.18,3Z"/><path d="M112.22,20.67l-8.61-8.73.43.11,0,8.27h-1.49V8.84h.08l8.5,8.77-.34-.08,0-8.35h1.49V20.67Z"/><path d="M120.34,20.32V9.18h3a7.15,7.15,0,0,1,2.82.5A5.13,5.13,0,0,1,128.06,11a5.63,5.63,0,0,1,1,1.84,6.71,6.71,0,0,1,.32,2,5.59,5.59,0,0,1-.44,2.26,5,5,0,0,1-1.2,1.71A5.16,5.16,0,0,1,126,19.94a5.88,5.88,0,0,1-2.1.38Zm1.49-1.44h1.8a5.12,5.12,0,0,0,1.69-.27,4.24,4.24,0,0,0,1.35-.8,3.49,3.49,0,0,0,.9-1.29,4.37,4.37,0,0,0,.33-1.75,4.57,4.57,0,0,0-.34-1.79,3.76,3.76,0,0,0-.93-1.3,4.06,4.06,0,0,0-1.32-.8,4.46,4.46,0,0,0-1.54-.27h-1.94Z"/><path d="M131.93,9.18h7.24v1.43h-5.75V14h5.13v1.45h-5.13v3.43h6v1.44h-7.45Z"/><path d="M142,9.18h1.49v9.7h5.65v1.44H142Z"/><path d="M151.55,9.18H153V20.32h-1.49Z"/><path d="M157,9.18l3.67,9.21-.85-.17,3.47-9h1.77l-4.91,11.66L155.26,9.18Z"/><path d="M167.32,9.18h7.23v1.43h-5.74V14h5.13v1.45h-5.13v3.43h6v1.44h-7.45Z"/><path d="M180.31,9.18a5.11,5.11,0,0,1,1.56.23,3.64,3.64,0,0,1,1.25.66,3,3,0,0,1,.83,1.08,3.53,3.53,0,0,1,.3,1.48,4.45,4.45,0,0,1-.19,1.3,3.2,3.2,0,0,1-.63,1.14,3.06,3.06,0,0,1-1.16.83,4.38,4.38,0,0,1-1.77.32h-1.65v4.1h-1.49V9.18Zm.16,5.59a2.58,2.58,0,0,0,1.1-.2,1.72,1.72,0,0,0,.68-.51,2.19,2.19,0,0,0,.36-.67,2.47,2.47,0,0,0,.1-.7,2.16,2.16,0,0,0-.11-.69,2.22,2.22,0,0,0-.37-.67,2,2,0,0,0-.66-.52,2.35,2.35,0,0,0-1-.2h-1.72v4.16Zm1.83.87,2.91,4.68h-1.73l-3-4.64Z"/><path d="M190.37,16.6l-4.13-7.42h1.83l3.31,6.15-.46,0,3.28-6.18H196l-4.16,7.42v3.72h-1.49Z"/><path d="M4.76,9.55c0,.84,0,1.59,0,2.34s-.33.67-.8.66-.9,0-.89-.69c0-2-.14-4,.06-6C3.37,3.65,5,2.41,6.94,1.63a19.73,19.73,0,0,1,15.71,0c2.56,1.07,3.94,2.56,3.88,5.7-.12,5.51-.13,11,0,16.54.09,3.43-1.32,4.84-4.21,6.14A18.3,18.3,0,0,1,14,31.38c-.5,0-1.1.11-1-.77s.47-.76,1.07-.78a19.45,19.45,0,0,0,8.22-1.6c1.79-.89,2.8-2.07,2.55-4.14a16.37,16.37,0,0,1,0-2,14.79,14.79,0,0,1-6.49,2.54,30,30,0,0,1-4.64.17c-.5,0-.78-.14-.7-.72s.17-.83.81-.8a17,17,0,0,0,7.63-1.21c3.75-1.62,3.59-2.49,3.24-6.17a17.42,17.42,0,0,1-10.62,2.7c-.52,0-1.1.11-1.06-.75s.45-.88,1.11-.86a17.71,17.71,0,0,0,8-1.46c2-.88,3.06-2.24,2.7-4.51a8.77,8.77,0,0,1,0-1.46A20,20,0,0,1,4.76,9.55Zm10.31.95a15.05,15.05,0,0,0,5.61-.79,7.47,7.47,0,0,0,3.69-2.28,2,2,0,0,0,0-2.58A7.4,7.4,0,0,0,20.2,2.39a19.22,19.22,0,0,0-10.71,0A9.2,9.2,0,0,0,6.16,4C4.29,5.45,4.3,7,6.29,8.39,8.85,10.15,11.76,10.56,15.07,10.5Z"/><path d="M10.36,29.67a4.36,4.36,0,0,1-2.89,3.91c-1,.33-1.77.71-1.53,2,.11.58-.23.77-.81.77s-.87-.24-.74-.8c.3-1.3-.52-1.61-1.51-2a4.2,4.2,0,0,1-2.79-3c-.11-.41-.23-.88.39-1,.47-.07,1-.15,1.18.53.52,2.65,5,2.88,6.46,1.1A2.46,2.46,0,0,0,6.9,27.32a9.87,9.87,0,0,0-2.65-.51A4.3,4.3,0,0,1,.33,24.05a4,4,0,0,1,2.73-5.42c1-.28,1.53-.61,1.33-1.72-.1-.55-.06-1,.77-1s.86.52.78,1c-.15,1.06.37,1.41,1.3,1.68a4.23,4.23,0,0,1,2.93,2.87c.13.38.41,1-.27,1.12-.5.12-1.06.17-1.27-.56-.73-2.46-4.32-2.83-6.16-1.29a2.25,2.25,0,0,0-.76,2.45,3,3,0,0,0,2.4,2c1.25.34,2.6.08,3.83.8A4.73,4.73,0,0,1,10.36,29.67Z"/></svg>