<svg id="e0660c90-7253-4e6f-b4f1-0caa6a84bd56" data-name="Layer 1" xmlns="http://www.w3.org/2000/svg" viewBox="0 0 62.71 14.26"><title>delivery-icon-regular</title><path d="M25.54,2.24h2v.44H26V3.77h1.39v.45H26V5.68h-.46Z"/><path d="M29.26,2.24a1.51,1.51,0,0,1,.48.07,1,1,0,0,1,.38.2.88.88,0,0,1,.26.34,1.06,1.06,0,0,1,.09.45,1.34,1.34,0,0,1-.06.4,1,1,0,0,1-.19.36,1,1,0,0,1-.36.25,1.29,1.29,0,0,1-.55.1H28.8V5.68h-.46V2.24ZM29.3,4a.83.83,0,0,0,.34-.06.6.6,0,0,0,.22-.16.54.54,0,0,0,.1-.2.6.6,0,0,0,0-.22.52.52,0,0,0,0-.21.61.61,0,0,0-.11-.21.58.58,0,0,0-.21-.16.67.67,0,0,0-.3-.06H28.8V4Zm.57.27.9,1.45h-.53l-.92-1.44Z"/><path d="M31.48,2.24h2.23v.44H31.94v1h1.58v.44H31.94V5.23h1.84v.45h-2.3Z"/><path d="M34.58,2.24h2.24v.44H35v1h1.59v.44H35V5.23h1.84v.45h-2.3Z"/><path d="M39.19,5.68V2.24h.93a2.19,2.19,0,0,1,.87.15,1.48,1.48,0,0,1,.58.41,1.63,1.63,0,0,1,.32.57A2,2,0,0,1,42,4a1.75,1.75,0,0,1-.13.7,1.62,1.62,0,0,1-.92.86,1.73,1.73,0,0,1-.64.12Zm.46-.45h.55a1.51,1.51,0,0,0,.53-.08,1.13,1.13,0,0,0,.41-.25,1,1,0,0,0,.28-.4,1.27,1.27,0,0,0,.1-.54,1.35,1.35,0,0,0-.1-.55,1.18,1.18,0,0,0-.29-.4,1.22,1.22,0,0,0-.41-.25,1.5,1.5,0,0,0-.47-.08h-.6Z"/><path d="M42.77,2.24H45v.44H43.23v1h1.59v.44H43.23V5.23h1.84v.45h-2.3Z"/><path d="M45.87,2.24h.46v3h1.75v.45H45.87Z"/><path d="M48.83,2.24h.46V5.68h-.46Z"/><path d="M50.53,2.24l1.13,2.84L51.4,5l1.07-2.79H53L51.5,5.84,50,2.24Z"/><path d="M53.71,2.24h2.23v.44H54.17v1h1.58v.44H54.17V5.23H56v.45h-2.3Z"/><path d="M57.72,2.24a1.43,1.43,0,0,1,.48.07,1,1,0,0,1,.39.2,1,1,0,0,1,.26.34,1.06,1.06,0,0,1,.09.45,1.34,1.34,0,0,1-.06.4,1,1,0,0,1-.55.61,1.29,1.29,0,0,1-.55.1h-.51V5.68h-.46V2.24ZM57.77,4a.86.86,0,0,0,.34-.06.49.49,0,0,0,.21-.16.56.56,0,0,0,.11-.2.89.89,0,0,0,0-.22.76.76,0,0,0,0-.21.63.63,0,0,0-.12-.21.64.64,0,0,0-.2-.16.71.71,0,0,0-.31-.06h-.53V4Zm.57.27.89,1.45H58.7l-.92-1.44Z"/><path d="M60.83,4.53,59.55,2.24h.57l1,1.9H61l1-1.9h.56L61.29,4.53V5.68h-.46Z"/><path d="M25.42,9.33V8.2H25.2V8.06h.22V7.41A.73.73,0,0,1,25.53,7a.37.37,0,0,1,.31-.14h.1l.1,0L26,7l0,0h-.06a.25.25,0,0,0-.22.1.71.71,0,0,0-.07.35v.65H26V8.2h-.43V9.33Z"/><path d="M26.23,8.69a.7.7,0,0,1,.09-.35.72.72,0,0,1,.25-.24.73.73,0,0,1,.7,0,.69.69,0,0,1,.24.24.7.7,0,0,1,.09.35.66.66,0,0,1-.33.58.7.7,0,0,1-.35.09.68.68,0,0,1-.35-.09A.58.58,0,0,1,26.32,9,.64.64,0,0,1,26.23,8.69Zm.16,0a.5.5,0,0,0,.07.27.5.5,0,0,0,.46.27.59.59,0,0,0,.26-.07.61.61,0,0,0,.19-.2.56.56,0,0,0,0-.54.52.52,0,0,0-.19-.2.48.48,0,0,0-.26-.07.5.5,0,0,0-.27.07.55.55,0,0,0-.26.47Z"/><path d="M28.19,8.05l0,.4,0,0a.57.57,0,0,1,.13-.21.74.74,0,0,1,.21-.13.52.52,0,0,1,.21,0v.15a.6.6,0,0,0-.27.06.66.66,0,0,0-.19.18.41.41,0,0,0-.07.25v.67h-.15V8.05Z"/><path d="M30.06,8.69a.7.7,0,0,1,.09-.35.69.69,0,0,1,.24-.24A.7.7,0,0,1,30.74,8a.68.68,0,0,1,.35.09.69.69,0,0,1,.24.24.7.7,0,0,1,.09.35.66.66,0,0,1-.33.58.7.7,0,0,1-.35.09.68.68,0,0,1-.35-.09A.56.56,0,0,1,30.15,9,.64.64,0,0,1,30.06,8.69Zm.15,0a.5.5,0,0,0,.07.27.5.5,0,0,0,.46.27A.59.59,0,0,0,31,9.16a.52.52,0,0,0,.19-.2.56.56,0,0,0,0-.54.46.46,0,0,0-.19-.2.48.48,0,0,0-.26-.07.5.5,0,0,0-.27.07.55.55,0,0,0-.26.47Z"/><path d="M32,8.05l0,.4,0,0a.57.57,0,0,1,.13-.21.74.74,0,0,1,.21-.13.57.57,0,0,1,.22,0v.15a.6.6,0,0,0-.27.06.66.66,0,0,0-.19.18.49.49,0,0,0-.07.25v.67h-.15V8.05Z"/><path d="M33.47,9.36a.63.63,0,0,1-.33-.09A.59.59,0,0,1,32.91,9a.67.67,0,0,1-.09-.34.69.69,0,0,1,.09-.36.59.59,0,0,1,.24-.23A.67.67,0,0,1,33.49,8a.74.74,0,0,1,.35.1.58.58,0,0,1,.24.25l0,.07V6.85h.15V9.33h-.15V8.94l0,.07a.55.55,0,0,1-.25.25A.63.63,0,0,1,33.47,9.36Zm0-.14a.6.6,0,0,0,.27-.06A.61.61,0,0,0,34,9a.67.67,0,0,0,.08-.25V8.58a.6.6,0,0,0-.1-.23.9.9,0,0,0-.19-.15.54.54,0,0,0-.25-.06.6.6,0,0,0-.27.07.58.58,0,0,0-.19.19.53.53,0,0,0-.07.28.55.55,0,0,0,.07.28.58.58,0,0,0,.19.19A.52.52,0,0,0,33.51,9.22Z"/><path d="M35.34,9.36A.68.68,0,0,1,35,9.27.69.69,0,0,1,34.75,9a.69.69,0,0,1,0-.68A.85.85,0,0,1,35,8.1.68.68,0,0,1,35.35,8a.56.56,0,0,1,.38.14A.7.7,0,0,1,36,8.5l-1.11.43-.05-.11,1-.4,0,0a.6.6,0,0,0-.17-.22.36.36,0,0,0-.27-.1.54.54,0,0,0-.46.81.52.52,0,0,0,.19.2.51.51,0,0,0,.28.07.69.69,0,0,0,.2,0,.62.62,0,0,0,.17-.11l.08.12a1,1,0,0,1-.21.11A.7.7,0,0,1,35.34,9.36Z"/><path d="M36.51,8.05l0,.4,0,0a.49.49,0,0,1,.14-.21.69.69,0,0,1,.2-.13.57.57,0,0,1,.22,0v.15a.6.6,0,0,0-.27.06.66.66,0,0,0-.19.18.49.49,0,0,0-.07.25v.67h-.15V8.05Z"/><path d="M39,9.36a.73.73,0,0,1-.33-.08A.59.59,0,0,1,38.47,9a.65.65,0,0,1-.09-.35.69.69,0,0,1,.09-.36.64.64,0,0,1,.25-.24A.8.8,0,0,1,39.08,8a.56.56,0,0,1,.32.11.59.59,0,0,1,.22.25l0,.05,0-.37h.14V9.33H39.6V8.94l0,.06a.66.66,0,0,1-.08.13.53.53,0,0,1-.14.11.56.56,0,0,1-.17.09A.71.71,0,0,1,39,9.36Zm0-.13a.58.58,0,0,0,.26-.06A.49.49,0,0,0,39.51,9a.54.54,0,0,0,.09-.25V8.57a.65.65,0,0,0-.11-.22.58.58,0,0,0-.19-.15.47.47,0,0,0-.24,0,.58.58,0,0,0-.26.06.61.61,0,0,0-.2.19.65.65,0,0,0-.07.29A.6.6,0,0,0,38.6,9a.52.52,0,0,0,.2.19A.5.5,0,0,0,39.07,9.23Z"/><path d="M41.05,9.36a.65.65,0,0,1-.36-.1A.6.6,0,0,1,40.45,9l0-.09v.42h-.16V6.85h.16V8.43l0-.09a.66.66,0,0,1,.23-.24A.87.87,0,0,1,41.06,8a.63.63,0,0,1,.33.09.69.69,0,0,1,.24.24.74.74,0,0,1,.08.34.7.7,0,0,1-.09.37.59.59,0,0,1-.24.23A.73.73,0,0,1,41.05,9.36Zm0-.14a.54.54,0,0,0,.29-.07A.47.47,0,0,0,41.49,9a.61.61,0,0,0,.07-.28.6.6,0,0,0-.07-.27.5.5,0,0,0-.19-.19A.51.51,0,0,0,41,8.14a.48.48,0,0,0-.24.06.58.58,0,0,0-.19.15.41.41,0,0,0-.1.22v.2a.37.37,0,0,0,.08.22.52.52,0,0,0,.19.17A.58.58,0,0,0,41,9.22Z"/><path d="M42.05,8.69a.7.7,0,0,1,.09-.35.69.69,0,0,1,.24-.24A.7.7,0,0,1,42.73,8a.68.68,0,0,1,.35.09.69.69,0,0,1,.24.24.7.7,0,0,1,.09.35.66.66,0,0,1-.33.58.7.7,0,0,1-.35.09.68.68,0,0,1-.35-.09A.56.56,0,0,1,42.14,9,.64.64,0,0,1,42.05,8.69Zm.15,0a.5.5,0,0,0,.07.27.5.5,0,0,0,.46.27A.59.59,0,0,0,43,9.16a.52.52,0,0,0,.19-.2.56.56,0,0,0,0-.54.46.46,0,0,0-.19-.2.48.48,0,0,0-.26-.07.5.5,0,0,0-.27.07.55.55,0,0,0-.26.47Z"/><path d="M44.28,9.38l-.64-1.33h.18l.53,1.17h-.1l.52-1.16h.17L44.3,9.38Z"/><path d="M45.88,9.36a.71.71,0,0,1-.36-.09A.69.69,0,0,1,45.28,9a.74.74,0,0,1-.08-.34.64.64,0,0,1,.09-.34.67.67,0,0,1,.25-.25A.64.64,0,0,1,45.88,8a.56.56,0,0,1,.38.14.72.72,0,0,1,.23.35l-1.12.43,0-.11,1-.4,0,0a.72.72,0,0,0-.17-.22.4.4,0,0,0-.28-.1.53.53,0,0,0-.26.07.52.52,0,0,0-.19.2.5.5,0,0,0-.07.27.6.6,0,0,0,.06.27.61.61,0,0,0,.19.2.53.53,0,0,0,.28.07.64.64,0,0,0,.2,0,.5.5,0,0,0,.17-.11l.08.12a1,1,0,0,1-.21.11A.69.69,0,0,1,45.88,9.36Z"/><path d="M49.05,7.2l-.92,2.13H48l.88-2,.07,0H47.7V7.2Z"/><path d="M50.2,9.35a.92.92,0,0,1-.38-.08A.81.81,0,0,1,49.54,9a1,1,0,0,1-.18-.35,1.42,1.42,0,0,1-.06-.42,1.49,1.49,0,0,1,.06-.43,1.27,1.27,0,0,1,.17-.35.8.8,0,0,1,.29-.22.76.76,0,0,1,.38-.08.92.92,0,0,1,.38.08.89.89,0,0,1,.28.23,1.27,1.27,0,0,1,.17.35,1.42,1.42,0,0,1,.06.42,1.54,1.54,0,0,1-.06.43,1.2,1.2,0,0,1-.17.34.76.76,0,0,1-.66.32Zm0-.15a.64.64,0,0,0,.38-.12.77.77,0,0,0,.26-.32,1.28,1.28,0,0,0,.09-.5,1.22,1.22,0,0,0-.09-.49.87.87,0,0,0-.26-.33.7.7,0,0,0-.38-.11.66.66,0,0,0-.38.11.78.78,0,0,0-.26.33,1.22,1.22,0,0,0-.09.49,1.28,1.28,0,0,0,.09.5.7.7,0,0,0,.26.32A.6.6,0,0,0,50.2,9.2Z"/><path d="M52.22,9.35a1,1,0,0,1-.38-.08A.92.92,0,0,1,51.56,9a1.14,1.14,0,0,1-.17-.35,1.42,1.42,0,0,1-.06-.42,1.49,1.49,0,0,1,.06-.43,1,1,0,0,1,.17-.35.85.85,0,0,1,.28-.22.79.79,0,0,1,.38-.08.79.79,0,0,1,.66.31,1.06,1.06,0,0,1,.18.35,1.42,1.42,0,0,1,.06.42,1.54,1.54,0,0,1-.06.43,1,1,0,0,1-.18.34.92.92,0,0,1-.28.24A.89.89,0,0,1,52.22,9.35Zm0-.15a.64.64,0,0,0,.38-.12.7.7,0,0,0,.26-.32,1.28,1.28,0,0,0,.09-.5,1.22,1.22,0,0,0-.09-.49.78.78,0,0,0-.26-.33.71.71,0,0,0-.76,0,.76.76,0,0,0-.25.33,1.07,1.07,0,0,0-.1.49,1.12,1.12,0,0,0,.1.5.68.68,0,0,0,.25.32A.64.64,0,0,0,52.22,9.2Z"/><path d="M54.61,9.33V7h.57a1.43,1.43,0,0,1,.58.11,1.08,1.08,0,0,1,.38.28,1.11,1.11,0,0,1,.22.38,1.39,1.39,0,0,1,.06.4,1.21,1.21,0,0,1-.09.48,1,1,0,0,1-.25.36,1,1,0,0,1-.36.23,1,1,0,0,1-.43.08Zm.16-.15h.48a1,1,0,0,0,.39-.07,1,1,0,0,0,.32-.2.84.84,0,0,0,.22-.31,1.16,1.16,0,0,0,.08-.42,1,1,0,0,0-.07-.39.91.91,0,0,0-.2-.32,1,1,0,0,0-.33-.22,1.08,1.08,0,0,0-.46-.08h-.43Z"/><path d="M58.74,7V9.33h-.16V8.24h-1.4V9.33H57V7h.16V8.09h1.4V7Z"/><path d="M60.64,7.27l-.25-.09a1,1,0,0,0-.3,0,.57.57,0,0,0-.36.11.38.38,0,0,0-.14.29.33.33,0,0,0,.08.22.71.71,0,0,0,.21.15l.27.11.22.1a.72.72,0,0,1,.21.12.52.52,0,0,1,.14.19.58.58,0,0,1,.06.28.67.67,0,0,1-.09.34.65.65,0,0,1-.26.23.89.89,0,0,1-.38.08,1.46,1.46,0,0,1-.31,0,1.18,1.18,0,0,1-.25-.1l-.17-.1L59.4,9a1.52,1.52,0,0,0,.39.19.73.73,0,0,0,.25,0,.66.66,0,0,0,.27-.06A.46.46,0,0,0,60.53,9a.43.43,0,0,0,.09-.28.4.4,0,0,0-.09-.27.51.51,0,0,0-.21-.17l-.27-.12-.22-.09L59.63,8a.75.75,0,0,1-.15-.16.56.56,0,0,1,0-.23.55.55,0,0,1,.08-.29.63.63,0,0,1,.23-.2A.74.74,0,0,1,60.08,7a1.29,1.29,0,0,1,.33,0,1.1,1.1,0,0,1,.29.11Z"/><path d="M27.12,13.32l-.16.09-.24.08a1.39,1.39,0,0,1-.3,0,1.3,1.3,0,0,1-.49-.09,1.23,1.23,0,0,1-.37-.26,1,1,0,0,1-.24-.38,1.17,1.17,0,0,1-.08-.46,1.57,1.57,0,0,1,.08-.49,1.14,1.14,0,0,1,.25-.39,1.05,1.05,0,0,1,.37-.25,1.19,1.19,0,0,1,.47-.09,1.46,1.46,0,0,1,.38.05,1.4,1.4,0,0,1,.3.14l-.13.3a1,1,0,0,0-.23-.13.81.81,0,0,0-.31-.06.72.72,0,0,0-.33.07.83.83,0,0,0-.27.19,1.12,1.12,0,0,0-.19.29,1,1,0,0,0-.06.36,1,1,0,0,0,.06.35.92.92,0,0,0,.17.29,1,1,0,0,0,.27.19.86.86,0,0,0,.36.07.79.79,0,0,0,.32-.06A.67.67,0,0,0,27,13Z"/><path d="M27.58,13.5V11h.3V12.4a.63.63,0,0,1,.21-.22.64.64,0,0,1,.34-.09.45.45,0,0,1,.31.11.42.42,0,0,1,.13.3v1h-.31v-.9a.28.28,0,0,0-.06-.18.27.27,0,0,0-.19-.07.31.31,0,0,0-.21.07.34.34,0,0,0-.15.18.55.55,0,0,0-.06.26v.64Z"/><path d="M30,13.53a.74.74,0,0,1-.34-.08.64.64,0,0,1-.25-.24.89.89,0,0,1,0-.78.62.62,0,0,1,.26-.25.68.68,0,0,1,.35-.09.56.56,0,0,1,.52.29l0,0,0-.29h.28V13.5h-.31v-.36l0,.08-.06.09-.12.1-.16.09A.78.78,0,0,1,30,13.53Zm.08-.25a.65.65,0,0,0,.21,0,.45.45,0,0,0,.23-.31v-.26a.31.31,0,0,0-.09-.18.58.58,0,0,0-.15-.11.45.45,0,0,0-.2,0,.44.44,0,0,0-.23.06.41.41,0,0,0-.16.16.49.49,0,0,0-.06.25.53.53,0,0,0,.06.24.55.55,0,0,0,.17.17A.43.43,0,0,0,30,13.28Z"/><path d="M31.58,12.14l0,.33v-.05a.49.49,0,0,1,.21-.24.68.68,0,0,1,.35-.09.47.47,0,0,1,.31.11.41.41,0,0,1,.12.3v1h-.3v-.9a.29.29,0,0,0-.07-.18.25.25,0,0,0-.18-.07.36.36,0,0,0-.22.07.45.45,0,0,0-.15.18.67.67,0,0,0-.05.26v.64H31.3V12.14Z"/><path d="M33.74,13.53a.87.87,0,0,1-.4-.09.69.69,0,0,1-.25-.26.69.69,0,0,1,0-.73.75.75,0,0,1,.27-.26.7.7,0,0,1,.38-.1.63.63,0,0,1,.44.15.87.87,0,0,1,.25.44l-1.12.39-.07-.18.91-.34-.06,0a.5.5,0,0,0-.13-.19.41.41,0,0,0-.24-.08.38.38,0,0,0-.22.06.41.41,0,0,0-.16.16.6.6,0,0,0-.05.24.49.49,0,0,0,.06.25.37.37,0,0,0,.16.17.41.41,0,0,0,.23.06.47.47,0,0,0,.17,0,.83.83,0,0,0,.16-.09l.14.23-.23.11A.73.73,0,0,1,33.74,13.53Z"/><path d="M34.81,11h.31V13.5h-.31Z"/><path d="M37.31,13.53a.82.82,0,0,1-.4-.09.72.72,0,0,1-.26-.26.75.75,0,0,1-.09-.37.65.65,0,0,1,.1-.36.8.8,0,0,1,.66-.36.67.67,0,0,1,.44.15.79.79,0,0,1,.24.44l-1.12.39-.07-.18.91-.34-.06,0a.41.41,0,0,0-.13-.19.36.36,0,0,0-.24-.08.43.43,0,0,0-.22.06.46.46,0,0,0-.15.16.48.48,0,0,0-.06.24.49.49,0,0,0,.06.25.44.44,0,0,0,.16.17.48.48,0,0,0,.24.06l.17,0a1.29,1.29,0,0,0,.16-.09l.13.23-.22.11A.77.77,0,0,1,37.31,13.53Z"/><path d="M39.56,13.5h-.37l-1-1.36h.38ZM38.84,13l-.36.51h-.3l.52-.71Zm0-.34.33-.51h.31l-.53.73Z"/><path d="M41,13.37a.66.66,0,0,1-.22.12.73.73,0,0,1-.25,0,.8.8,0,0,1-.39-.09.63.63,0,0,1-.26-.25.64.64,0,0,1-.1-.37.77.77,0,0,1,.1-.38.78.78,0,0,1,.27-.24.7.7,0,0,1,.35-.09,1.27,1.27,0,0,1,.29,0,.67.67,0,0,1,.22.13l-.15.2-.14-.08a.41.41,0,0,0-.19,0,.44.44,0,0,0-.23.06.46.46,0,0,0-.15.16.48.48,0,0,0-.06.24.46.46,0,0,0,.06.23.52.52,0,0,0,.16.17.48.48,0,0,0,.24.06.41.41,0,0,0,.16,0,.61.61,0,0,0,.14-.07Z"/><path d="M41.37,11h.31V13.5h-.31Z"/><path d="M42.64,13.55a.45.45,0,0,1-.31-.11.46.46,0,0,1-.13-.3v-1h.31V13a.29.29,0,0,0,.07.17.22.22,0,0,0,.18.08.31.31,0,0,0,.2-.07.45.45,0,0,0,.15-.18.76.76,0,0,0,0-.27v-.63h.31V13.5h-.28l0-.34,0,.07a.61.61,0,0,1-.12.16.52.52,0,0,1-.19.12A.59.59,0,0,1,42.64,13.55Z"/><path d="M44.54,13.53a.67.67,0,0,1-.34-.09.61.61,0,0,1-.24-.26.76.76,0,0,1-.09-.38.65.65,0,0,1,.1-.38.6.6,0,0,1,.25-.25.86.86,0,0,1,.36-.08.67.67,0,0,1,.31.07.45.45,0,0,1,.22.19V11h.3V13.5h-.3v-.34l0,.09a.63.63,0,0,1-.25.2A.74.74,0,0,1,44.54,13.53Zm.1-.26a.46.46,0,0,0,.21,0,.48.48,0,0,0,.25-.31v-.26a.42.42,0,0,0-.1-.17.4.4,0,0,0-.16-.12.65.65,0,0,0-.2,0,.46.46,0,0,0-.23.06.65.65,0,0,0-.17.16.54.54,0,0,0-.06.25.48.48,0,0,0,.06.24.55.55,0,0,0,.17.17A.46.46,0,0,0,44.64,13.27Z"/><path d="M46.56,13.53a.84.84,0,0,1-.4-.09.72.72,0,0,1-.26-.26.75.75,0,0,1,0-.73.8.8,0,0,1,.66-.36.65.65,0,0,1,.44.15.79.79,0,0,1,.24.44l-1.11.39-.08-.18.92-.34-.07,0a.41.41,0,0,0-.13-.19.36.36,0,0,0-.24-.08.43.43,0,0,0-.22.06.46.46,0,0,0-.15.16.47.47,0,0,0-.05.24.49.49,0,0,0,.05.25.44.44,0,0,0,.16.17.48.48,0,0,0,.24.06.51.51,0,0,0,.17,0,1.29,1.29,0,0,0,.16-.09l.14.23-.23.11A.77.77,0,0,1,46.56,13.53Z"/><path d="M48.18,13.53a.67.67,0,0,1-.34-.09.61.61,0,0,1-.24-.26.76.76,0,0,1-.09-.38.65.65,0,0,1,.1-.38.67.67,0,0,1,.25-.25.86.86,0,0,1,.36-.08.67.67,0,0,1,.31.07.48.48,0,0,1,.23.19l0,.1V11H49V13.5h-.3v-.34l0,.09a.76.76,0,0,1-.6.28Zm.1-.26a.46.46,0,0,0,.21,0,.48.48,0,0,0,.25-.31v-.26a.56.56,0,0,0-.09-.17.61.61,0,0,0-.16-.12.78.78,0,0,0-.21,0,.46.46,0,0,0-.23.06.49.49,0,0,0-.16.16.45.45,0,0,0-.07.25.4.4,0,0,0,.07.24.44.44,0,0,0,.16.17A.46.46,0,0,0,48.28,13.27Z"/><path d="M10.12,0h4.32c.8,0,1.14.35,1.15,1.16s0,.89.9.89,1.59,0,2.39,0a.91.91,0,0,1,.89.57L21.18,5.4c.11.23.15.51.26.72.5,1,.16,2,.25,3a.82.82,0,0,1-.94,1c-.62,0-1,.05-1.14.77a1.86,1.86,0,0,1-2.06,1.27,2,2,0,0,1-1.71-1.47c-.16-.56-.16-.56-.75-.56H11.38c-.3,0-.45.07-.49.4a2,2,0,0,1-2.07,1.64A2,2,0,0,1,7,10.36c0-.21-.12-.26-.3-.26h-1a1,1,0,0,1-1-.91.29.29,0,0,1,.21-.36.24.24,0,0,1,.33.23c0,.45.33.56.72.51h.25A1.1,1.1,0,0,0,7.35,9a2,2,0,0,1,3.42.35.32.32,0,0,0,.36.24h3.64c.23,0,.31-.07.31-.31,0-2.71,0-5.42,0-8.13,0-.44-.16-.59-.6-.59H5.73c-.31,0-.49.08-.54.41s-.11.41-.37.33S4.59,1,4.66.78A1,1,0,0,1,5.74,0Zm5.47,6.08V9.22c0,.11-.07.29.11.33s.19-.13.25-.25a1.9,1.9,0,0,1,1.59-1.14A1.74,1.74,0,0,1,19.38,9a1,1,0,0,0,1.15.57h.1c.44,0,.52-.07.52-.52,0-.64,0-1.28-.06-1.92s0-.54-.56-.54c-1,0-2,0-3,0-.28,0-.36-.09-.35-.37,0-.73,0-1.47,0-2.21,0-.18-.07-.45.24-.45s.26.28.27.47q0,.85,0,1.71c0,.25.07.37.34.37h2.46c.33,0,.35-.06.2-.36-.47-1-.95-1.89-1.42-2.84a.56.56,0,0,0-.59-.36H16c-.31,0-.41.1-.41.41C15.6,4,15.59,5,15.59,6.08Zm2.16,2.59a1.43,1.43,0,0,0-1.45,1.47,1.47,1.47,0,0,0,1.47,1.47,1.47,1.47,0,1,0,0-2.94ZM10.4,10.13A1.42,1.42,0,0,0,8.94,8.67a1.49,1.49,0,0,0-1.49,1.45A1.51,1.51,0,0,0,9,11.61,1.45,1.45,0,0,0,10.4,10.13Z"/><path d="M3.84,7.44H5.91c.21,0,.45,0,.46.27S6.12,8,5.9,8H1.69c-.2,0-.45,0-.44-.29s.24-.27.45-.27Z"/><path d="M5.37,6.22H3.2c-.19,0-.39,0-.39-.26S3,5.7,3.2,5.7H7.59c.2,0,.37,0,.36.28s-.19.24-.37.24Z"/><path d="M6,2.71H3.88c-.18,0-.38,0-.38-.25s.21-.26.38-.26H8.24c.17,0,.39,0,.4.24s-.21.27-.41.27Z"/><path d="M4,4H6.23c.19,0,.37,0,.37.26s-.18.25-.35.25H1.83c-.17,0-.36,0-.36-.25S1.65,4,1.85,4Z"/><path d="M1.1,5.71H2c.16,0,.27.07.28.24s-.12.25-.27.26H.26C.1,6.21,0,6.12,0,6A.26.26,0,0,1,.29,5.7Z"/><path d="M2.06,2.71c-.18,0-.54.13-.53-.27s.35-.21.57-.24.23,0,.35,0,.29.08.28.26-.13.26-.31.25Z"/></svg>