<svg id="b6e8b50f-4524-48e3-a8d8-5759b0efb562" data-name="Layer 1" xmlns="http://www.w3.org/2000/svg" viewBox="0 0 175.97 36.33"><title>quick-reply-icon</title><path d="M64.46,14.83a5.38,5.38,0,0,1,.44-2.18,5.78,5.78,0,0,1,3-3.07,5.72,5.72,0,0,1,4.4,0,5.94,5.94,0,0,1,1.82,1.24,5.87,5.87,0,0,1,1.24,1.83,5.6,5.6,0,0,1,0,4.4,5.8,5.8,0,0,1-1.23,1.81,5.94,5.94,0,0,1-1.82,1.22,5.61,5.61,0,0,1-2.2.44,5.76,5.76,0,0,1-2.21-.43,5.86,5.86,0,0,1-1.81-1.21,5.61,5.61,0,0,1-1.22-1.81A5.5,5.5,0,0,1,64.46,14.83Zm1.54,0a4.17,4.17,0,0,0,.31,1.62,4.1,4.1,0,0,0,.9,1.35,4.19,4.19,0,0,0,1.32.92,4.17,4.17,0,0,0,3.25,0A4.14,4.14,0,0,0,74,16.5a4.29,4.29,0,0,0,0-3.3,4.37,4.37,0,0,0-.88-1.35,4.22,4.22,0,0,0-1.33-.9,4,4,0,0,0-1.62-.34A4.08,4.08,0,0,0,68.5,11a4.2,4.2,0,0,0-2.5,3.9ZM72.49,19h3.82v1.44H70.49Z"/><path d="M80.15,16.45a2.57,2.57,0,0,0,.36,1.35,2.63,2.63,0,0,0,1,.93,2.68,2.68,0,0,0,1.35.34,2.82,2.82,0,0,0,1.4-.34,2.52,2.52,0,0,0,1-.93,2.66,2.66,0,0,0,.35-1.35V9.26H87V16.5a4,4,0,0,1-.55,2.12A3.71,3.71,0,0,1,85,20a4.72,4.72,0,0,1-4.23,0,3.71,3.71,0,0,1-1.51-1.4,4,4,0,0,1-.56-2.12V9.26h1.5Z"/><path d="M90.06,9.26h1.5V20.39h-1.5Z"/><path d="M102.94,19.56a6.79,6.79,0,0,1-.76.42,5.76,5.76,0,0,1-1.11.38,6.21,6.21,0,0,1-1.41.16,5.93,5.93,0,0,1-2.32-.47,5.26,5.26,0,0,1-1.77-1.21,5.42,5.42,0,0,1-1.12-1.78,6.12,6.12,0,0,1-.38-2.15,6.35,6.35,0,0,1,.4-2.3,5.25,5.25,0,0,1,2.9-3,5.51,5.51,0,0,1,2.21-.43,5.8,5.8,0,0,1,1.82.27,6.76,6.76,0,0,1,1.4.62l-.6,1.42a5.67,5.67,0,0,0-1.13-.6,3.59,3.59,0,0,0-1.44-.28,3.79,3.79,0,0,0-1.54.32,4,4,0,0,0-1.28.91,4.28,4.28,0,0,0-.87,1.36,4.36,4.36,0,0,0-.32,1.67,4.86,4.86,0,0,0,.29,1.68,4.09,4.09,0,0,0,.81,1.35,3.8,3.8,0,0,0,1.29.9,4.18,4.18,0,0,0,1.69.32,4,4,0,0,0,1.51-.26,4.89,4.89,0,0,0,1.1-.58Z"/><path d="M107,13.74l0,.56.18-.28,4.56-4.76h1.92L109,14l4.86,6.36H112L107.89,15l-.93.91v4.49h-1.51V9.26H107Z"/><path d="M123.72,9.26a5.23,5.23,0,0,1,1.57.22,3.54,3.54,0,0,1,1.24.67,3,3,0,0,1,.83,1.08,3.46,3.46,0,0,1,.31,1.48,4.34,4.34,0,0,1-.2,1.29,3.1,3.1,0,0,1-1.78,2,4.43,4.43,0,0,1-1.78.32h-1.65v4.09h-1.49V9.26Zm.16,5.59a2.7,2.7,0,0,0,1.1-.2,1.74,1.74,0,0,0,.68-.52,1.9,1.9,0,0,0,.36-.67,2.37,2.37,0,0,0,.11-.69,2.13,2.13,0,0,0-.12-.69,2.11,2.11,0,0,0-.37-.67,2,2,0,0,0-.66-.52,2.28,2.28,0,0,0-1-.2h-1.72v4.16Zm1.83.86,2.91,4.68h-1.73l-3-4.63Z"/><path d="M130.91,9.26h7.24v1.43h-5.74v3.39h5.13v1.45h-5.13V19h6v1.43h-7.46Z"/><path d="M143.93,9.26a4.88,4.88,0,0,1,2.08.41,3.05,3.05,0,0,1,1.33,1.18,3.52,3.52,0,0,1,.47,1.86,4.46,4.46,0,0,1-.2,1.3,3.47,3.47,0,0,1-.64,1.16,3.22,3.22,0,0,1-1.15.83,4.23,4.23,0,0,1-1.72.31h-1.65v4.08H141V9.26Zm.15,5.59a2.46,2.46,0,0,0,1.09-.21,1.78,1.78,0,0,0,.68-.54,2.74,2.74,0,0,0,.36-.7,2.25,2.25,0,0,0,.1-.66,2.47,2.47,0,0,0-.1-.7,2,2,0,0,0-.37-.66,2,2,0,0,0-.66-.5,2.49,2.49,0,0,0-1-.19h-1.72v4.16Z"/><path d="M150.12,9.26h1.49V19h5.65v1.43h-7.14Z"/><path d="M162.5,16.68l-4.13-7.42h1.83l3.31,6.14-.46,0,3.28-6.18h1.82L164,16.68v3.71H162.5Z"/><path d="M66.21,34a2.16,2.16,0,0,1-1.08-.27,2,2,0,0,1-.76-.76,2.18,2.18,0,0,1-.28-1.13,2.32,2.32,0,0,1,.29-1.18,2,2,0,0,1,.81-.75,2.53,2.53,0,0,1,1.15-.26,1.86,1.86,0,0,1,1,.33,1.9,1.9,0,0,1,.7.82L68,30.9l.06-1.17h.44v4.14H68V32.59l.1.19a1.19,1.19,0,0,1-.25.41,2.4,2.4,0,0,1-.44.39,2.5,2.5,0,0,1-.57.27A2.07,2.07,0,0,1,66.21,34Zm.1-.42a1.8,1.8,0,0,0,.84-.2A1.61,1.61,0,0,0,68,32v-.59a1.69,1.69,0,0,0-.34-.7,1.84,1.84,0,0,0-.61-.49A1.72,1.72,0,0,0,66.3,30a1.8,1.8,0,0,0-.86.22,1.65,1.65,0,0,0-.62.61,1.72,1.72,0,0,0-.23.92,1.63,1.63,0,0,0,.23.88,1.68,1.68,0,0,0,.63.64A1.62,1.62,0,0,0,66.31,33.53Z"/><path d="M70.84,29.73l0,1.3-.06-.25a1.6,1.6,0,0,1,.68-.86,2.17,2.17,0,0,1,1.12-.31,1.34,1.34,0,0,1,.94.34,1.2,1.2,0,0,1,.37.9v3h-.5V31a1,1,0,0,0-.26-.67.91.91,0,0,0-.71-.27,1.5,1.5,0,0,0-.77.2,1.56,1.56,0,0,0-.58.56,1.63,1.63,0,0,0-.21.83v2.23h-.5V29.73Z"/><path d="M77.52,34a2,2,0,0,1-1.06-.28,2.08,2.08,0,0,1-.75-.78,2.19,2.19,0,0,1-.28-1.12,2.23,2.23,0,0,1,.28-1.15,2,2,0,0,1,.78-.76,2.33,2.33,0,0,1,1.08-.26,2.16,2.16,0,0,1,1.13.31,1.82,1.82,0,0,1,.78.8l-.08.23V25.82h.49v8h-.5V32.6l.1.23a2.11,2.11,0,0,1-.79.81A2.29,2.29,0,0,1,77.52,34Zm.13-.43a1.77,1.77,0,0,0,.86-.21,1.64,1.64,0,0,0,.61-.56,1.7,1.7,0,0,0,.27-.8v-.53a1.58,1.58,0,0,0-.33-.72,1.88,1.88,0,0,0-.62-.5,1.62,1.62,0,0,0-.79-.19,1.71,1.71,0,0,0-.87.23,1.58,1.58,0,0,0-.62.61,1.69,1.69,0,0,0-.24.91,1.66,1.66,0,0,0,.24.88,1.68,1.68,0,0,0,.63.64A1.62,1.62,0,0,0,77.65,33.52Z"/><path d="M86,34a2.28,2.28,0,0,1-.75-.13,1.43,1.43,0,0,1-.64-.43l.24-.33a1.64,1.64,0,0,0,.5.36,1.44,1.44,0,0,0,.62.13,1.39,1.39,0,0,0,.46-.07.79.79,0,0,0,.35-.24.64.64,0,0,0,.14-.45.61.61,0,0,0-.16-.46,1.51,1.51,0,0,0-.41-.26c-.17-.06-.34-.13-.53-.18a2.1,2.1,0,0,1-.74-.41.87.87,0,0,1-.3-.71,1.08,1.08,0,0,1,.17-.6,1.17,1.17,0,0,1,.45-.4,1.47,1.47,0,0,1,.64-.14,2.06,2.06,0,0,1,.65.11,1.45,1.45,0,0,1,.59.36l-.22.35a.82.82,0,0,0-.45-.32,2.13,2.13,0,0,0-.49-.1,1.08,1.08,0,0,0-.38.08.83.83,0,0,0-.33.22.55.55,0,0,0-.13.37.59.59,0,0,0,.14.4,1.16,1.16,0,0,0,.35.25l.45.18a4.37,4.37,0,0,1,.58.22,1.43,1.43,0,0,1,.45.35,1,1,0,0,1,.17.58,1.28,1.28,0,0,1-.16.65,1,1,0,0,1-.47.46A1.68,1.68,0,0,1,86,34Z"/><path d="M90.22,34a1.29,1.29,0,0,1-.93-.34,1.32,1.32,0,0,1-.37-.9v-3h.5V32.6a1,1,0,0,0,.26.66,1,1,0,0,0,.71.29,1.48,1.48,0,0,0,.76-.21,1.64,1.64,0,0,0,.56-.58,1.54,1.54,0,0,0,.22-.83v-2.2h.5v4.14H92l0-1.31.07.29a1.47,1.47,0,0,1-.37.58,1.83,1.83,0,0,1-.64.4A2,2,0,0,1,90.22,34Z"/><path d="M96.6,34a2.07,2.07,0,0,1-1.11-.31,2,2,0,0,1-.77-.81l.09-.18v3.21h-.5V29.7h.45l0,1.35-.1-.31a2.35,2.35,0,0,1,.81-.82,2.22,2.22,0,0,1,1.15-.32,2,2,0,0,1,1.07.29,2.16,2.16,0,0,1,.76.77,2.23,2.23,0,0,1,.28,1.13,2.2,2.2,0,0,1-.29,1.12,2.16,2.16,0,0,1-.79.77A2.21,2.21,0,0,1,96.6,34Zm-.09-.41a1.79,1.79,0,0,0,.89-.23,1.9,1.9,0,0,0,.63-.63,1.7,1.7,0,0,0,.24-.89A1.76,1.76,0,0,0,98,30.9a1.7,1.7,0,0,0-.62-.63,1.63,1.63,0,0,0-.87-.24,1.61,1.61,0,0,0-.85.22,1.7,1.7,0,0,0-.62.57,1.85,1.85,0,0,0-.27.81V32a1.63,1.63,0,0,0,.27.8,1.72,1.72,0,0,0,.61.56A1.67,1.67,0,0,0,96.51,33.54Z"/><path d="M102.55,34a2.07,2.07,0,0,1-1.11-.31,2,2,0,0,1-.77-.81l.09-.18v3.21h-.5V29.7h.45l.05,1.35-.1-.31a2.27,2.27,0,0,1,.81-.82,2.22,2.22,0,0,1,1.15-.32,2,2,0,0,1,1.07.29,2.16,2.16,0,0,1,.76.77,2.23,2.23,0,0,1,.28,1.13,2.2,2.2,0,0,1-.29,1.12,2.16,2.16,0,0,1-.79.77A2.21,2.21,0,0,1,102.55,34Zm-.09-.41a1.79,1.79,0,0,0,.89-.23,1.9,1.9,0,0,0,.63-.63,1.7,1.7,0,0,0,.24-.89,1.76,1.76,0,0,0-.23-.89,1.7,1.7,0,0,0-.62-.63,1.64,1.64,0,0,0-.88-.24,1.6,1.6,0,0,0-.84.22,1.7,1.7,0,0,0-.62.57,1.85,1.85,0,0,0-.27.81V32a1.63,1.63,0,0,0,.27.8,1.72,1.72,0,0,0,.61.56A1.67,1.67,0,0,0,102.46,33.54Z"/><path d="M105.81,31.77a2.08,2.08,0,0,1,.29-1.1,2.14,2.14,0,0,1,.79-.79,2.26,2.26,0,0,1,1.13-.29,2.24,2.24,0,0,1,1.13.29,2.14,2.14,0,0,1,.79.79,2.3,2.3,0,0,1,0,2.2,2.14,2.14,0,0,1-.79.79A2.3,2.3,0,0,1,108,34a2.19,2.19,0,0,1-1.12-.28,2.09,2.09,0,0,1-.79-.77A2.14,2.14,0,0,1,105.81,31.77Zm.5,0a1.7,1.7,0,0,0,.84,1.52,1.65,1.65,0,0,0,.86.23,1.68,1.68,0,0,0,.86-.23,1.87,1.87,0,0,0,.62-.63,1.78,1.78,0,0,0,.22-.89,1.74,1.74,0,0,0-.22-.88,1.81,1.81,0,0,0-.62-.64,1.65,1.65,0,0,0-1.73,0,1.89,1.89,0,0,0-.61.65A1.75,1.75,0,0,0,106.31,31.78Z"/><path d="M112.14,29.73l0,1.27-.06-.16a1.61,1.61,0,0,1,.43-.66,2.31,2.31,0,0,1,.66-.42,1.89,1.89,0,0,1,.71-.15l0,.49a1.81,1.81,0,0,0-.87.21,1.67,1.67,0,0,0-.61.57,1.44,1.44,0,0,0-.23.8v2.19h-.5V29.73Z"/><path d="M115.74,27.91h.51v1.87h1.28v.4h-1.28v3.69h-.51V30.18h-.88v-.4h.88Z"/><path d="M124.35,29.73l1.56,3.52h-.11l1.51-3.53h.51l-1.95,4.39-1.33-2.94-1.22,2.94-1.95-4.39h.5l1.6,3.6-.18-.06,1.06-2.56-.46-1Z"/><path d="M129,28.2a.32.32,0,0,1,.12-.25.39.39,0,0,1,.25-.1.37.37,0,0,1,.25.1.34.34,0,0,1,.11.25.35.35,0,0,1-.11.26.33.33,0,0,1-.25.1.35.35,0,0,1-.25-.1A.34.34,0,0,1,129,28.2Zm.11,1.53h.49v4.14h-.49Z"/><path d="M131.85,27.91h.51v1.87h1.28v.4h-1.28v3.69h-.51V30.18H131v-.4h.88Z"/><path d="M134.88,33.87v-8h.48v5l0-.18a1.84,1.84,0,0,1,.68-.74,2,2,0,0,1,1.09-.3A1.34,1.34,0,0,1,138,30a1.2,1.2,0,0,1,.37.9v3h-.51V31a1,1,0,0,0-.25-.67.91.91,0,0,0-.71-.27,1.51,1.51,0,0,0-.77.21,1.67,1.67,0,0,0-.58.57,1.58,1.58,0,0,0-.22.81v2.23Z"/><path d="M140.19,28.2a.32.32,0,0,1,.12-.25.42.42,0,0,1,.25-.1.4.4,0,0,1,.26.1.33.33,0,0,1,.1.25.34.34,0,0,1-.1.26.35.35,0,0,1-.26.1.36.36,0,0,1-.25-.1A.34.34,0,0,1,140.19,28.2Zm.11,1.53h.5v4.14h-.5Z"/><path d="M143.11,29.73l.06,1.3-.07-.25a1.58,1.58,0,0,1,.69-.86,2.11,2.11,0,0,1,1.11-.31,1.38,1.38,0,0,1,.95.34,1.24,1.24,0,0,1,.37.9v3h-.51V31a1,1,0,0,0-.26-.67.89.89,0,0,0-.71-.27,1.5,1.5,0,0,0-.77.2,1.56,1.56,0,0,0-.58.56,1.63,1.63,0,0,0-.21.83v2.23h-.5V29.73Z"/><path d="M151.35,33.87v-8h.49v5l0-.18a1.77,1.77,0,0,1,.68-.74,2,2,0,0,1,1.08-.3,1.34,1.34,0,0,1,.94.34,1.21,1.21,0,0,1,.38.9v3h-.51V31a1,1,0,0,0-.26-.67.91.91,0,0,0-.71-.27,1.51,1.51,0,0,0-.77.21,1.67,1.67,0,0,0-.58.57,1.58,1.58,0,0,0-.21.81v2.23Z"/><path d="M156.37,31.77a2.08,2.08,0,0,1,.29-1.1,2.14,2.14,0,0,1,.79-.79,2.26,2.26,0,0,1,1.13-.29,2.24,2.24,0,0,1,1.13.29,2.14,2.14,0,0,1,.79.79,2.3,2.3,0,0,1,0,2.2,2.14,2.14,0,0,1-.79.79,2.3,2.3,0,0,1-1.14.29,2.19,2.19,0,0,1-1.12-.28,2.09,2.09,0,0,1-.79-.77A2.14,2.14,0,0,1,156.37,31.77Zm.49,0a1.74,1.74,0,0,0,.85,1.52,1.65,1.65,0,0,0,.86.23,1.68,1.68,0,0,0,.86-.23,1.87,1.87,0,0,0,.62-.63,1.78,1.78,0,0,0,.22-.89,1.74,1.74,0,0,0-.22-.88,1.81,1.81,0,0,0-.62-.64,1.65,1.65,0,0,0-1.73,0,1.89,1.89,0,0,0-.61.65A1.76,1.76,0,0,0,156.86,31.78Z"/><path d="M163.57,34a1.29,1.29,0,0,1-.94-.34,1.32,1.32,0,0,1-.37-.9v-3h.5V32.6a1.06,1.06,0,0,0,.26.66,1,1,0,0,0,.72.29,1.47,1.47,0,0,0,.75-.21,1.64,1.64,0,0,0,.56-.58,1.54,1.54,0,0,0,.22-.83v-2.2h.5v4.14h-.45l0-1.31.07.29a1.47,1.47,0,0,1-.37.58,1.83,1.83,0,0,1-.64.4A2,2,0,0,1,163.57,34Z"/><path d="M168.09,29.73l0,1.27-.06-.16a1.61,1.61,0,0,1,.43-.66,2.31,2.31,0,0,1,.66-.42,1.89,1.89,0,0,1,.71-.15l0,.49a1.79,1.79,0,0,0-.86.21,1.6,1.6,0,0,0-.61.57,1.44,1.44,0,0,0-.23.8v2.19h-.5V29.73Z"/><path d="M172.25,34a2.38,2.38,0,0,1-.76-.13,1.34,1.34,0,0,1-.63-.43l.23-.33a1.57,1.57,0,0,0,.51.36,1.54,1.54,0,0,0,1.08.06.79.79,0,0,0,.35-.24.69.69,0,0,0,.14-.45.62.62,0,0,0-.17-.46,1.37,1.37,0,0,0-.41-.26c-.16-.06-.34-.13-.52-.18a2.06,2.06,0,0,1-.75-.41.9.9,0,0,1-.29-.71,1.08,1.08,0,0,1,.16-.6,1.17,1.17,0,0,1,.45-.4,1.51,1.51,0,0,1,.65-.14,2.11,2.11,0,0,1,.65.11,1.52,1.52,0,0,1,.59.36l-.22.35a.88.88,0,0,0-.46-.32,2,2,0,0,0-.49-.1,1,1,0,0,0-.37.08.83.83,0,0,0-.33.22.51.51,0,0,0-.13.37.58.58,0,0,0,.13.4,1.21,1.21,0,0,0,.36.25l.45.18a5,5,0,0,1,.58.22,1.39,1.39,0,0,1,.44.35.89.89,0,0,1,.18.58,1.39,1.39,0,0,1-.16.65,1.16,1.16,0,0,1-.47.46A1.71,1.71,0,0,1,172.25,34Z"/><path d="M174.89,33.25a.33.33,0,0,1,.25-.1.36.36,0,0,1,.25.62.42.42,0,0,1-.25.1.37.37,0,0,1-.25-.1.39.39,0,0,1,0-.52Z"/><path d="M.61,36.13c-.29-.07-.55-.08-.6-.4A.59.59,0,0,1,.41,35c1.73-.76,3.43-1.58,5.15-2.36,2.19-1,4.39-1.95,6.58-2.92.43-.19.95-.58,1.22.08s-.27.76-.76,1C8.8,32.47,5,34.19,1.24,35.89,1,36,.79,36.06.61,36.13Z"/><path d="M11.59,25.86a.59.59,0,0,1-.39.59c-2,.9-4,1.82-6,2.71-.28.12-.65.16-.8-.21a.57.57,0,0,1,.35-.82c2-.88,4-1.81,6-2.69A.55.55,0,0,1,11.59,25.86Z"/><path d="M6,23.8a.65.65,0,0,1-.64-.43.51.51,0,0,1,.25-.7c1.12-.51,2.24-1,3.37-1.5a.53.53,0,0,1,.69.3.44.44,0,0,1-.17.63C8.28,22.69,7.08,23.26,6,23.8Z"/><path d="M50.25,20.44Q46,10.79,41.71,1.16c-.55-1.25-1-1.41-2.19-.86L10,13.36c-1.24.55-1.37.92-.81,2.19l8.55,19.29c.59,1.34.78,1.41,2.14.81L49.42,22.57h0a1.74,1.74,0,0,0,.34-.16C50.79,21.92,50.79,21.67,50.25,20.44ZM11.72,13.81l27.08-12c.27-.12.6-.46.84-.26s-.06.63-.16.93c-.38,1.12-.81,2.23-1.21,3.35-.07.18-1.49,4.53-2.14,6.48-.06.11-.1.24-.15.35-.92,2.66-1.86,5.32-2.75,8-.73,2.2-1.64,2.65-3.8,1.73L11.77,14.85a2,2,0,0,1-1-.63Zm7.1,19.82s-.08.09-.22.24c-2.71-6.12-5.39-12.15-8.08-18.23.48-.16.84.19,1.2.34,3.56,1.5,7.11,3,10.68,4.55.5.22.82.42.59,1.08C21.58,25.61,20.21,29.62,18.82,33.63Zm2,.42-1.06.47a2.34,2.34,0,0,1,0-.46C21.22,30,22.62,26,24,21.91c.18-.55.48-.46.86-.3l4.56,1.94a3.21,3.21,0,0,0,4.66-2c.57-1.59,1.14-3.19,1.65-4.8.17-.54.33-.58.83-.36,3.83,1.67,7.68,3.3,11.53,4.95.16.07.41.09.39.33a.23.23,0,0,1-.14.2l-.19.09-.09,0h0Zm28-13.73c-.24.22-.53-.08-.77-.18-3.71-1.58-7.41-3.19-11.12-4.75-.51-.21-.73-.37-.42-.93a5.17,5.17,0,0,0,.35-1c.58-1.67,3.19-9.41,3.71-10.78.07-.17,0-.51.3-.49s.31.28.39.47Q42.47,5.35,43.65,8q2.54,5.72,5.06,11.42C48.83,19.73,49.12,20.05,48.83,20.32Z"/></svg>